<svg width="520" height="140" viewBox="0 0 520 140" fill="none" xmlns="http://www.w3.org/2000/svg">
  <g transform="translate(10 16)">
    <circle cx="54" cy="54" r="49" fill="#07130C" stroke="#1D8B37" stroke-width="6"/>
    <path d="M75 34C67 26 55 23 43 27C27 32 18 47 22 64C26 81 42 91 59 87C72 84 81 74 83 62H56" stroke="#62D83A" stroke-width="13" stroke-linecap="round" stroke-linejoin="round"/>
    <path d="M77 63L104 47L96 78L77 63Z" fill="#62D83A"/>
    <path d="M91 44C106 29 123 21 143 20C137 40 126 55 109 66L91 44Z" fill="#49B62D"/>
    <circle cx="117" cy="39" r="5" fill="#D8FFD0"/>
    <path d="M33 83C22 91 15 102 12 117C25 109 34 99 40 86L33 83Z" fill="#FFB532"/>
    <path d="M52 92C42 103 37 115 36 130C49 118 56 107 60 95L52 92Z" fill="#FF8F1F"/>
  </g>
  <text x="165" y="91" fill="#0D7F2E" font-family="Arial, Helvetica, sans-serif" font-size="58" font-weight="900">GrowKaro</text>
  <path d="M452 86L490 48" stroke="#49B62D" stroke-width="9" stroke-linecap="round"/>
  <path d="M468 48H490V70" stroke="#49B62D" stroke-width="9" stroke-linecap="round" stroke-linejoin="round"/>
</svg>
